# xmcd CD database file
#
# Track frame offsets:
#	150
#	22391
#	41064
#	62962
#	77351
#	94759
#	111140
#	129513
#	146723
#	165648
#
# Disc length: 2425 seconds
#
# Revision: 0
# Processed by: cddbd v1.5.1PL0 Copyright (c) Steve Scherf et al.
# Submitted via: CDex 1.51
#
DISCID=8909770a
DTITLE=The midnight blues - "04"
DYEAR=2004
DGENRE=Blues
TTITLE0=Muddy Water Blues
TTITLE1=Steamroller
TTITLE2=Crazy World
TTITLE3=Back Beat Boogie
TTITLE4=Skweeze me, please me
TTITLE5=Rock 'n' Roll man
TTITLE6=Stay just one night
TTITLE7=Mexican Cowboy
TTITLE8=Stand up
TTITLE9=Riverside
EXTD=YEAR: 2004
EXTT0=
EXTT1=
EXTT2=
EXTT3=
EXTT4=
EXTT5=
EXTT6=
EXTT7=
EXTT8=
EXTT9=
PLAYORDER=
